<?xml version="1.0" encoding="UTF-8" standalone="no"?>
<svg
   width="26"
   height="26"
   viewBox="0 0 26 26"
   version="1.1"
   id="svg4"
   sodipodi:docname="website.svg"
   inkscape:version="1.1 (c68e22c387, 2021-05-23)"
   xmlns:inkscape="http://www.inkscape.org/namespaces/inkscape"
   xmlns:sodipodi="http://sodipodi.sourceforge.net/DTD/sodipodi-0.dtd"
   xmlns="http://www.w3.org/2000/svg"
   xmlns:svg="http://www.w3.org/2000/svg">
  <defs
     id="defs8" />
  <sodipodi:namedview
     id="namedview6"
     pagecolor="#ffffff"
     bordercolor="#666666"
     borderopacity="1.0"
     inkscape:pageshadow="2"
     inkscape:pageopacity="0.0"
     inkscape:pagecheckerboard="0"
     showgrid="false"
     inkscape:zoom="33.576923"
     inkscape:cx="13"
     inkscape:cy="12.940435"
     inkscape:window-width="2560"
     inkscape:window-height="1361"
     inkscape:window-x="-9"
     inkscape:window-y="-9"
     inkscape:window-maximized="1"
     inkscape:current-layer="svg4" />
  <path
     d="M 13 0 C 7.228 0 2.317 3.784 0.625 9 L 2.75 9 C 3.033 8.282 3.3925 7.60475 3.8125 6.96875 C 3.8745 6.98075 3.935 7 4 7 L 5.875 7 C 5.676 7.634 5.51 8.309 5.375 9 L 7.4375 9 C 7.5925 8.301 7.773 7.624 8 7 L 18 7 C 18.227 7.624 18.4075 8.301 18.5625 9 L 20.625 9 C 20.49 8.309 20.324 7.634 20.125 7 L 22 7 C 22.065 7 22.1245 6.98075 22.1875 6.96875 C 22.6055 7.60475 22.967 8.282 23.25 9 L 25.375 9 C 23.684 3.784 18.772 0 13 0 z M 13 2 C 14.551 2 15.9835 3.154 17.0625 5 L 8.9375 5 C 10.0165 3.154 11.449 2 13 2 z M 7.5 3.46875 C 7.192 3.93775 6.91425 4.457 6.65625 5 L 5.46875 5 C 6.08575 4.419 6.762 3.89675 7.5 3.46875 z M 18.5 3.46875 C 19.24 3.89675 19.91425 4.419 20.53125 5 L 19.34375 5 C 19.08575 4.457 18.809 3.93775 18.5 3.46875 z M 0.25 10.90625 C 0.2115 10.923875 0.18225 10.9675 0.15625 11 C 0.10425 11.065 0.095 11.14475 0.125 11.21875 L 1.6875 15 C 1.7275 15.095 1.8205 15.15625 1.9375 15.15625 L 2.78125 15.15625 C 2.89225 15.15625 2.98925 15.091 3.03125 15 L 3.875 13.21875 C 3.95 13.05275 4.02075 12.8735 4.09375 12.6875 C 4.15975 12.8565 4.2355 13.0095 4.3125 13.1875 L 5.09375 15 C 5.13375 15.093 5.23075 15.15625 5.34375 15.15625 L 6.21875 15.15625 C 6.33175 15.15625 6.42775 15.094 6.46875 15 L 8.125 11.21875 C 8.157 11.14375 8.14675 11.068 8.09375 11 C 8.04175 10.935 7.966 10.90625 7.875 10.90625 L 6.9375 10.90625 C 6.8205 10.90625 6.7255 10.9645 6.6875 11.0625 L 5.9375 12.96875 C 5.8725 13.13775 5.83025 13.26425 5.78125 13.40625 C 5.72225 13.25625 5.66575 13.1075 5.59375 12.9375 L 4.78125 11.0625 C 4.74025 10.9685 4.64625 10.90625 4.53125 10.90625 L 3.75 10.90625 C 3.637 10.90625 3.50975 10.9695 3.46875 11.0625 L 2.625 12.96875 C 2.556 13.13175 2.4975 13.2915 2.4375 13.4375 C 2.3885 13.2915 2.33825 13.13075 2.28125 12.96875 L 1.59375 11.0625 C 1.55775 10.9625 1.46475 10.90625 1.34375 10.90625 L 0.375 10.90625 C 0.33 10.90625 0.2885 10.888625 0.25 10.90625 z M 9.1875 10.90625 C 9.148875 10.924 9.0885 10.968 9.0625 11 C 9.0105 11.065 9.00125 11.14475 9.03125 11.21875 L 10.59375 15 C 10.63375 15.095 10.72775 15.15625 10.84375 15.15625 L 11.71875 15.15625 C 11.83075 15.15625 11.92675 15.091 11.96875 15 L 12.8125 13.21875 C 12.8875 13.05275 12.95825 12.8735 13.03125 12.6875 C 13.09725 12.8565 13.14075 13.0095 13.21875 13.1875 L 14.03125 15 C 14.07225 15.093 14.16825 15.15625 14.28125 15.15625 L 15.125 15.15625 C 15.237 15.15625 15.334 15.094 15.375 15 L 17.0625 11.21875 C 17.0955 11.14375 17.08425 11.068 17.03125 11 C 16.98125 10.935 16.87325 10.90625 16.78125 10.90625 L 15.875 10.90625 C 15.758 10.90625 15.63175 10.9645 15.59375 11.0625 L 14.875 12.96875 C 14.809 13.13775 14.7385 13.26425 14.6875 13.40625 C 14.6295 13.25625 14.571 13.1075 14.5 12.9375 L 13.71875 11.0625 C 13.67875 10.9685 13.5525 10.90625 13.4375 10.90625 L 12.65625 10.90625 C 12.54225 10.90625 12.44625 10.9695 12.40625 11.0625 L 11.5625 12.96875 C 11.4935 13.13175 11.434 13.2915 11.375 13.4375 C 11.324 13.2915 11.27575 13.13075 11.21875 12.96875 L 10.53125 11.0625 C 10.49525 10.9625 10.371 10.90625 10.25 10.90625 L 9.3125 10.90625 C 9.268 10.90625 9.226125 10.8885 9.1875 10.90625 z M 18.09375 10.90625 C 18.055 10.923875 18.026 10.9675 18 11 C 17.948 11.065 17.93975 11.14475 17.96875 11.21875 L 19.53125 15 C 19.57125 15.095 19.66425 15.15625 19.78125 15.15625 L 20.625 15.15625 C 20.736 15.15625 20.833 15.091 20.875 15 L 21.71875 13.21875 C 21.79375 13.05275 21.8645 12.8735 21.9375 12.6875 C 22.0035 12.8565 22.07825 13.0095 22.15625 13.1875 L 22.9375 15 C 22.9775 15.093 23.0745 15.15625 23.1875 15.15625 L 24.0625 15.15625 C 24.1755 15.15625 24.2705 15.094 24.3125 15 L 25.96875 11.21875 C 26.00075 11.14375 25.9885 11.068 25.9375 11 C 25.8865 10.935 25.81075 10.90625 25.71875 10.90625 L 24.78125 10.90625 C 24.66325 10.90625 24.56825 10.9645 24.53125 11.0625 L 23.78125 12.96875 C 23.71625 13.13775 23.674 13.26425 23.625 13.40625 C 23.566 13.25625 23.5095 13.1075 23.4375 12.9375 L 22.625 11.0625 C 22.585 10.9685 22.49 10.90625 22.375 10.90625 L 21.5625 10.90625 C 21.4485 10.90625 21.3535 10.9695 21.3125 11.0625 L 20.46875 12.96875 C 20.39975 13.13175 20.34025 13.2915 20.28125 13.4375 C 20.23125 13.2915 20.182 13.13075 20.125 12.96875 L 19.4375 11.0625 C 19.4025 10.9625 19.3085 10.90625 19.1875 10.90625 L 18.21875 10.90625 C 18.17375 10.90625 18.1325 10.888625 18.09375 10.90625 z M 0.625 17 C 2.317 22.216 7.228 26 13 26 C 18.772 26 23.684 22.216 25.375 17 L 23.25 17 C 22.967 17.719 22.6065 18.39425 22.1875 19.03125 C 22.1255 19.01925 22.065 19 22 19 L 20.125 19 C 20.324 18.366 20.45875 17.691 20.59375 17 L 18.5625 17 C 18.4085 17.699 18.227 18.377 18 19 L 8 19 C 7.773 18.377 7.5925 17.699 7.4375 17 L 5.40625 17 C 5.54125 17.691 5.676 18.366 5.875 19 L 4 19 C 3.935 19 3.8745 19.01925 3.8125 19.03125 C 3.3935 18.39425 3.033 17.719 2.75 17 L 0.625 17 z M 5.46875 21 L 6.65625 21 C 6.91425 21.543 7.192 22.06325 7.5 22.53125 C 6.761 22.10325 6.08575 21.581 5.46875 21 z M 8.9375 21 L 17.0625 21 C 15.9845 22.846 14.551 24 13 24 C 11.449 24 10.0165 22.846 8.9375 21 z M 19.34375 21 L 20.53125 21 C 19.91325 21.581 19.239 22.10325 18.5 22.53125 C 18.809 22.06325 19.08575 21.543 19.34375 21 z"
     id="path2" />
  <path
     style="fill:#a0a0a0;stroke:none;stroke-width:0.0297824"
     d="M 0.71231819,8.7932417 C 0.93045062,8.1525987 1.3550053,7.2128968 1.698811,6.6097557 3.9153683,2.7212317 8.0127536,0.2098226 12.42669,0.03432082 c 2.230433,-0.08868389 4.291972,0.34076331 6.276632,1.30750948 2.306674,1.1236025 4.310297,3.0091306 5.597867,5.2679254 0.343895,0.6032983 0.76836,1.5428424 0.986622,2.1838651 l 0.06858,0.2014101 -1.045012,-0.00782 -1.045012,-0.00782 -0.15297,-0.3424971 C 22.894499,8.146781 22.737266,7.8438221 22.464209,7.3860252 l -0.239813,-0.4020619 -1.045761,0.010069 c -0.575168,0.00554 -1.050254,0.014499 -1.055747,0.019914 -0.0055,0.00542 0.02386,0.1215025 0.06522,0.2579725 0.12908,0.4258746 0.406395,1.5748176 0.406395,1.6837314 0,0.03088 -0.201779,0.038622 -1.006525,0.038622 H 18.581453 L 18.442546,8.4358534 C 18.366147,8.1287228 18.240388,7.6797537 18.16308,7.4381443 L 18.022521,6.9988545 H 13 7.9774787 L 7.8369197,7.4381443 C 7.7596121,7.6797537 7.6338526,8.1287228 7.557454,8.4358534 L 7.4185472,8.9942726 H 6.4120229 c -0.5681602,0 -1.0065246,-0.011543 -1.0065246,-0.026504 0,-0.1155591 0.2741144,-1.2594156 0.4063946,-1.6958498 0.041363,-0.13647 0.070711,-0.2525574 0.065219,-0.2579725 -0.00549,-0.00542 -0.4797775,-0.014376 -1.0539662,-0.019914 L 3.7791664,6.9839633 3.6084039,7.2581347 C 3.3410117,7.6874519 3.0586718,8.2360081 2.8029614,8.8230241 L 2.7283637,8.9942726 H 1.6861164 0.64386919 Z M 6.8722178,4.6084759 C 6.9827509,4.3916263 7.1722811,4.0466781 7.2933958,3.8419244 7.4145108,3.6371707 7.5086541,3.4643618 7.5026032,3.4579047 7.4873278,3.4416039 6.9937656,3.7551484 6.6734364,3.984648 6.3390004,4.2242548 5.8953627,4.5839712 5.6437572,4.819547 l -0.1935854,0.1812519 0.6105384,9.739e-4 0.6105384,9.739e-4 0.2009692,-0.394272 z M 17.017822,4.8917526 C 16.093315,3.355708 15.015712,2.4190938 13.780241,2.0777607 13.584583,2.023705 13.470203,2.0144194 13,2.0144194 c -0.472813,0 -0.584055,0.00913 -0.784175,0.064348 -1.228507,0.3389838 -2.3117888,1.2813427 -3.2336467,2.8129857 l -0.06722,0.1116838 H 13 17.085041 Z m 3.440785,0.018964 C 20.313645,4.7570604 19.669889,4.2281438 19.355506,4.0043982 19.005362,3.7552014 18.51276,3.4413475 18.497769,3.4579047 c -0.0058,0.00646 0.09612,0.192668 0.226591,0.4138021 0.130471,0.221134 0.319585,0.5662371 0.420254,0.7668957 l 0.183034,0.3648339 h 0.609217 0.609216 z"
     id="path47" />
  <path
     style="fill:#a0a0a0;stroke:none;stroke-width:0.0297824"
     d="M 0.68623475,8.9272623 C 0.73069786,8.7793646 0.93685583,8.2450658 1.0740714,7.9221077 2.7776966,3.9123615 6.5101457,0.95880274 10.800845,0.22512425 11.588794,0.0903907 12.086878,0.05047915 12.985109,0.0500986 c 1.470324,-6.2291e-4 2.653136,0.18128628 3.973173,0.61104935 1.675978,0.54564635 3.154124,1.37272985 4.45497,2.49273845 1.726072,1.4861213 2.989293,3.3007738 3.775376,5.4234332 0.17339,0.468204 0.174504,0.4292293 -0.01164,0.4068782 -0.0879,-0.010554 -0.551449,-0.019306 -1.030117,-0.019449 L 23.27657,8.9644903 23.210489,8.8081329 C 23.080956,8.5016364 22.619333,7.6042248 22.433006,7.2966781 l -0.189457,-0.3127148 -1.053019,0.00761 c -0.57916,0.00419 -1.060128,0.014719 -1.068818,0.023409 -0.0087,0.00869 0.0075,0.09908 0.03602,0.2008674 0.121629,0.4344094 0.378338,1.4748031 0.395131,1.6013912 l 0.01825,0.1376192 -0.544054,0.019707 c -0.29923,0.010839 -0.742421,0.019707 -0.984868,0.019707 H 18.60138 L 18.573002,8.8825888 C 18.440722,8.3619872 18.226573,7.5830721 18.145172,7.3264605 l -0.0992,-0.3127148 H 13 7.9540254 L 7.8548278,7.3264605 C 7.7732236,7.5837128 7.5627585,8.3492767 7.4257739,8.8871362 L 7.3961715,9.0033679 6.423859,8.9821345 C 5.889087,8.9704563 5.4452819,8.9546365 5.4376251,8.9469797 5.4129332,8.9222878 5.6524724,7.8981775 5.8425362,7.2158485 5.8708893,7.1140613 5.8869775,7.023671 5.8782879,7.0149811 5.869598,7.0062915 5.3886299,6.9957575 4.8094699,6.9915724 L 3.7564514,6.9839633 3.5666047,7.2966781 C 3.3708429,7.6191362 2.9498741,8.4387902 2.7979798,8.7932417 L 2.7118314,8.9942726 H 1.6889603 0.66608917 Z M 6.8675399,4.6534937 C 6.9695097,4.4610252 7.1294737,4.1695304 7.2230156,4.0057274 7.4876087,3.5423943 7.5283798,3.4547537 7.479333,3.4547537 c -0.1273586,0 -1.3797982,0.9200665 -1.8802494,1.3812674 l -0.1786941,0.1646795 0.6308755,0.00137 0.6308756,0.00137 0.1853993,-0.3499427 z M 16.947958,4.7428408 C 16.607816,4.1956709 16.293893,3.8002059 15.829324,3.3336384 15.195781,2.6973699 14.680549,2.3588461 14.001938,2.1329887 13.681736,2.0264181 13.470653,1.9979739 13,1.9979739 c -0.619739,0 -0.9613,0.076164 -1.481683,0.330398 -0.499273,0.2439206 -0.852921,0.5076217 -1.347641,1.004882 C 9.7062893,3.8000251 9.3917343,4.1963949 9.0520424,4.7428408 L 8.890046,5.0034364 H 13 17.109954 Z m 3.462287,0.098752 c -0.447874,-0.42224 -1.762258,-1.3868391 -1.889738,-1.3868391 -0.04945,0 -0.03883,0.022824 0.242408,0.5211913 0.101681,0.1801833 0.268355,0.4850802 0.370387,0.6775487 l 0.185512,0.3499427 0.630398,-0.00109 0.630399,-0.00109 -0.169366,-0.1596719 z"
     id="path86" />
  <path
     style="fill:#a0a0a0;stroke:none;stroke-width:0.0297824"
     d="m 0.67010309,8.9807303 c 0,-0.03742 0.24829682,-0.6968197 0.37058771,-0.9841667 C 1.6823481,6.4888617 2.5712075,5.1470934 3.6906565,3.9963358 5.8379188,1.7890188 8.6292436,0.42955288 11.689576,0.10060166 c 0.564758,-0.06070513 1.895807,-0.06936969 2.457045,-0.0159943 3.634638,0.34566512 6.864469,2.12079784 9.116908,5.01070314 0.801728,1.0286262 1.461867,2.2222736 1.925702,3.4820091 0.172618,0.4688166 0.173809,0.4292183 -0.01224,0.4068782 -0.0879,-0.010554 -0.55107,-0.019306 -1.029275,-0.019449 L 23.278254,8.9644903 23.196127,8.7783505 C 23.036774,8.417181 22.649489,7.6648518 22.44872,7.3264605 l -0.203204,-0.3424972 -1.055448,0.00905 c -0.580496,0.00498 -1.061357,0.014965 -1.068581,0.022188 -0.0072,0.00722 0.05549,0.2711908 0.139361,0.5865931 0.170552,0.6413607 0.303871,1.210085 0.303871,1.2962751 0,0.053354 -0.03474,0.058274 -0.540857,0.076607 -0.297471,0.010775 -0.739222,0.019591 -0.981669,0.019591 H 18.60138 L 18.572612,8.8825888 C 18.353132,8.0305196 18.142492,7.2823874 18.063769,7.07533 L 18.034689,6.998855 H 13 7.965307 L 7.9362311,7.07533 C 7.8575079,7.2823874 7.6468677,8.0305196 7.4273884,8.8825888 l -0.028768,0.1116838 -0.378577,-8.93e-5 C 6.8118261,8.9941535 6.3700745,8.985312 6.0383734,8.974565 5.4887117,8.9567561 5.4352806,8.9503564 5.4352806,8.9023312 c 0,-0.080581 0.1657791,-0.7866096 0.3193018,-1.3598602 C 5.8302406,7.2599657 5.8863541,7.0230366 5.8792796,7.0159621 5.8722051,7.0088873 5.3961958,6.9934508 4.8214817,6.9816582 L 3.7765465,6.9602173 3.6029335,7.2401262 C 3.415298,7.5426536 2.9747065,8.3904594 2.8113035,8.7634269 L 2.7101947,8.9942077 1.6901489,8.9942375 C 1.1291237,8.994258 0.67010309,8.9881786 0.67010309,8.9807303 Z M 6.875309,4.6386025 C 6.9818226,4.4379439 7.170397,4.0928408 7.2943634,3.8717068 7.4183295,3.6505727 7.5065753,3.4652294 7.4904648,3.4598328 7.3893864,3.4259735 6.1568122,4.3229524 5.5990836,4.8362439 l -0.1786941,0.1644567 0.6306289,0.00137 0.630629,0.00137 L 6.875309,4.6386007 Z M 16.954735,4.757732 C 16.191607,3.5266165 15.19599,2.5966821 14.235968,2.2183257 13.796038,2.044944 13.66842,2.0200145 13.151372,2.0064564 12.592268,1.9917956 12.339407,2.01934 12.002152,2.1316419 10.904248,2.4972308 9.8755309,3.4175576 9.0168426,4.8024055 L 8.8921912,5.0034364 h 4.1074248 4.107424 z m 3.446181,0.077098 c -0.475485,-0.4414988 -1.7541,-1.3800762 -1.880063,-1.3800762 -0.05096,0 -0.07639,-0.052569 0.316912,0.6552119 0.15929,0.2866552 0.331768,0.6049542 0.383285,0.7073311 l 0.09367,0.1861397 0.632446,-0.00134 0.632447,-0.00134 -0.178695,-0.1659211 z"
     id="path125" />
  <path
     style="fill:#a0a0a0;stroke:none;stroke-width:0.0297824"
     d="m 0.67010309,8.978904 c 0,-0.1077922 0.51082321,-1.3368086 0.76928631,-1.8508661 C 2.652139,4.7159988 4.807154,2.5919362 7.2668958,1.3842318 8.6974545,0.68184425 10.118107,0.26951689 11.689576,0.10060166 c 0.564758,-0.06070513 1.895807,-0.06936969 2.457045,-0.0159943 1.322781,0.12580051 2.62002,0.44693825 3.814281,0.94424334 0.809794,0.3372085 1.381363,0.6410973 2.1273,1.1310307 2.045109,1.3432341 3.697924,3.2553176 4.686399,5.4215322 0.249101,0.5458987 0.578029,1.3841682 0.547786,1.3960266 -0.0041,0.00159 -0.466304,-0.00402 -1.02721,-0.012473 L 23.275349,8.9495991 23.080917,8.532646 C 22.88387,8.1100838 22.566603,7.5136822 22.356873,7.1715818 l -0.115022,-0.1876185 -1.039597,0.010022 c -0.571778,0.00551 -1.050668,0.020604 -1.064199,0.033537 -0.01353,0.012933 0.0239,0.1994403 0.08317,0.4144597 0.135817,0.4926639 0.343069,1.3684926 0.343309,1.4507976 1.79e-4,0.060228 -0.01789,0.062965 -0.540675,0.081902 -0.297471,0.010775 -0.739222,0.019591 -0.981669,0.019591 h -0.44081 l -0.0325,-0.126575 C 18.462107,8.4519007 18.201351,7.5098853 18.129887,7.2817869 L 18.045908,7.0137457 H 13 7.9540915 L 7.8701133,7.2817869 C 7.7986494,7.5098853 7.5378935,8.4519007 7.4311231,8.8676976 l -0.032503,0.126575 -0.378577,-8.93e-5 C 6.8118261,8.9941535 6.3700745,8.985312 6.0383734,8.974565 5.4861093,8.9566718 5.4352806,8.9505342 5.4352806,8.9017403 c 0,-0.081179 0.1941614,-0.9100098 0.3298498,-1.4080545 C 5.8315561,7.2498695 5.8749779,7.0396906 5.8616235,7.0266215 5.848269,7.0135524 5.3737976,6.99329 4.8072425,6.9815942 L 3.7771427,6.9603287 3.6402871,7.1806172 C 3.4144726,7.5440972 3.0970937,8.1436667 2.8985787,8.5817995 L 2.7116949,8.9942726 H 1.690899 c -0.5614377,0 -1.02079591,-0.00692 -1.02079591,-0.015369 z M 6.8508067,4.6832761 C 6.9442697,4.5071879 7.1263826,4.1743459 7.2555016,3.9436276 7.4805219,3.5415458 7.5180823,3.4547537 7.4670666,3.4547537 c -0.044976,0 -0.5919411,0.367623 -0.9745122,0.6549832 -0.3596166,0.2701186 -1.0572738,0.8512963 -1.0572738,0.8807534 0,0.00712 0.2802583,0.012946 0.6227965,0.012946 H 6.6808733 Z M 17.080183,4.9789503 c 0,-0.042555 -0.471752,-0.747819 -0.678823,-1.0148325 C 16.129123,3.6130747 15.512862,3.0009962 15.190697,2.7616703 14.858859,2.5151596 14.328868,2.2403285 13.938144,2.1121491 L 13.640321,2.0144463 13,2.0138539 12.359679,2.0132615 12.061856,2.1118025 C 11.380208,2.3373392 10.787345,2.7167834 10.198297,3.3045163 9.7271572,3.7746044 9.474803,4.092663 9.0571012,4.7428408 l -0.167418,0.2605956 h 4.0952498 c 2.252388,0 4.09525,-0.011019 4.09525,-0.024486 z M 20.517216,4.94012 C 20.230125,4.6197268 18.611104,3.4259283 18.509577,3.4597709 c -0.01667,0.00556 0.0648,0.1775794 0.181067,0.3822694 0.116261,0.2046899 0.305216,0.5497409 0.4199,0.7667799 l 0.208517,0.3946162 h 0.627445 0.627445 z"
     id="path164" />
  <path
     style="fill:#a0a0a0;stroke:none;stroke-width:0.0297824"
     d="m 1.7764721,15.07732 c -0.072232,-0.06098 -1.64245148,-3.844248 -1.64245148,-3.957309 0,-0.0404 0.0301546,-0.103008 0.0670103,-0.13912 0.0657156,-0.06439 0.0786443,-0.06537 0.66913266,-0.05077 0.49425452,0.01222 0.61050512,0.02329 0.64891502,0.06178 0.025736,0.02579 0.2343526,0.568571 0.4635927,1.206186 0.22924,0.637614 0.4271636,1.184768 0.4398302,1.215897 0.018864,0.04636 0.032865,0.0302 0.077402,-0.08935 0.029905,-0.08027 0.2694205,-0.632661 0.5322573,-1.227536 0.4051474,-0.916966 0.4904509,-1.08809 0.5604437,-1.124284 0.1022589,-0.05288 0.9779085,-0.0613 1.073165,-0.01032 0.033264,0.0178 0.1042257,0.128369 0.1576937,0.245704 0.083225,0.182637 0.8693027,2.011985 0.9352739,2.176555 0.018233,0.04548 0.037237,0.01813 0.093115,-0.134021 0.3073813,-0.836984 0.8745679,-2.224551 0.9272746,-2.268487 0.054771,-0.04566 0.133428,-0.05212 0.6343646,-0.05212 0.5343161,0 0.576118,0.004 0.6370214,0.06072 0.035849,0.0334 0.065181,0.0932 0.065181,0.132883 0,0.103031 -1.6605015,3.890845 -1.7331725,3.953586 -0.052721,0.04552 -0.1290324,0.05212 -0.6024263,0.05212 -0.4817243,0 -0.5484847,-0.006 -0.5997934,-0.05385 -0.031754,-0.02961 -0.2844969,-0.5791 -0.5616504,-1.221077 C 4.3414977,13.21253 4.105432,12.687276 4.0940605,12.687276 c -0.011372,0 -0.044376,0.06366 -0.073343,0.141466 -0.1032006,0.277198 -1.0052987,2.167867 -1.065758,2.233677 -0.059396,0.06465 -0.080116,0.06701 -0.589153,0.06701 -0.4590926,0 -0.5356077,-0.0068 -0.5893334,-0.05212 z"
     id="path203" />
  <path
     style="fill:#a0a0a0;stroke:none;stroke-width:0.0297824"
     d="m 10.681879,15.07732 c -0.06954,-0.05916 -1.6429328,-3.846723 -1.6429328,-3.954959 0,-0.03754 0.036899,-0.0989 0.082674,-0.137468 0.082107,-0.06918 0.086793,-0.06956 0.6840238,-0.05477 0.50373,0.01247 0.609247,0.0228 0.649997,0.06363 0.04256,0.04264 0.610246,1.564125 0.83163,2.228878 0.04378,0.131445 0.08378,0.238991 0.08891,0.238991 0.0051,0 0.05635,-0.117268 0.113828,-0.260596 0.261743,-0.652667 0.951696,-2.171876 1.007667,-2.218786 0.05386,-0.04514 0.129748,-0.05212 0.566541,-0.05212 0.48342,0 0.507122,0.0028 0.57104,0.06701 0.05357,0.05383 0.875159,1.966488 1.006267,2.342586 0.01853,0.05315 0.04312,0.08557 0.05466,0.07204 0.0396,-0.04645 0.20949,-0.472848 0.567491,-1.424364 0.227792,-0.605439 0.381246,-0.972045 0.420737,-1.005155 0.05441,-0.04562 0.132584,-0.05212 0.626688,-0.05212 0.655027,0 0.737653,0.0227 0.738846,0.202938 6.55e-4,0.09912 -1.689238,3.881887 -1.762034,3.944256 -0.05297,0.04539 -0.128986,0.05212 -0.588424,0.05212 -0.508826,0 -0.529807,-0.0024 -0.589866,-0.06701 -0.06577,-0.07078 -0.916827,-1.951805 -1.003868,-2.218785 -0.02804,-0.086 -0.06066,-0.156358 -0.07251,-0.156358 -0.01184,0 -0.06668,0.110567 -0.121858,0.245705 -0.178754,0.43777 -0.956719,2.060445 -1.020924,2.129438 -0.06026,0.06476 -0.0806,0.06701 -0.604843,0.06701 -0.473458,0 -0.550277,-0.0066 -0.603743,-0.05212 z"
     id="path242" />
  <path
     style="fill:#a0a0a0;stroke:none;stroke-width:0.0297824"
     d=""
     id="path281" />
  <path
     style="fill:#a0a0a0;stroke:none;stroke-width:0.0297824"
     d="m 19.617576,15.07732 c -0.06611,-0.05717 -1.644712,-3.854908 -1.643393,-3.953609 4.37e-4,-0.03276 0.02479,-0.09075 0.05411,-0.128871 0.05289,-0.06876 0.05815,-0.06928 0.661995,-0.06608 0.587828,0.0031 0.610831,0.0055 0.671536,0.06931 0.05995,0.06302 0.123207,0.230284 0.672599,1.778561 0.130779,0.368557 0.241534,0.673936 0.246123,0.678619 0.0046,0.0047 0.03907,-0.06903 0.07663,-0.163803 0.222486,-0.561461 0.994386,-2.265472 1.046045,-2.309203 0.05332,-0.04514 0.128752,-0.05212 0.562909,-0.05212 0.478601,0 0.504624,0.003 0.573741,0.06701 0.06415,0.05937 0.733608,1.560116 0.989897,2.219074 0.04625,0.118915 0.09332,0.206028 0.104607,0.193585 0.01128,-0.01244 0.03748,-0.07623 0.05821,-0.141754 0.122491,-0.387104 0.874607,-2.241044 0.927314,-2.285796 0.05386,-0.04574 0.132122,-0.05212 0.638841,-0.05212 0.537747,0 0.581553,0.0041 0.637022,0.05957 0.03276,0.03276 0.05956,0.09503 0.05956,0.138389 0,0.109627 -1.655508,3.884493 -1.731981,3.94924 -0.05371,0.04548 -0.130697,0.05212 -0.604042,0.05212 -0.52453,0 -0.544514,-0.0022 -0.603871,-0.06701 -0.03376,-0.03686 -0.269364,-0.549484 -0.523556,-1.139175 -0.55258,-1.281909 -0.531867,-1.235968 -0.557243,-1.235968 -0.01116,0 -0.05828,0.09717 -0.104698,0.215922 -0.143756,0.36777 -0.96786,2.088424 -1.034155,2.159221 -0.0605,0.06461 -0.08166,0.06701 -0.590341,0.06701 -0.459653,0 -0.535353,-0.0067 -0.587863,-0.05212 z"
     id="path320" />
  <path
     style="fill:#a0a0a0;stroke:none;stroke-width:0.0297824"
     d="M 12.418359,25.96868 C 8.5958332,25.801842 5.0078803,23.919412 2.6728526,20.85567 1.8642701,19.794745 1.1998629,18.571605 0.75550576,17.32593 L 0.64128315,17.005727 H 1.6854139 2.7295447 l 0.079014,0.18614 c 0.1644754,0.387466 0.4945034,1.034987 0.729723,1.431728 l 0.2440777,0.411683 0.1489118,-0.01681 c 0.081902,-0.0092 0.5558871,-0.01692 1.0533017,-0.01707 l 0.9043899,-2.59e-4 -0.019469,-0.06701 c -0.1314826,-0.452539 -0.4342132,-1.77742 -0.4342132,-1.9003 0,-0.01705 0.3899315,-0.0281 0.9916335,-0.0281 h 0.9916331 l 0.1389068,0.55842 c 0.076399,0.30713 0.2021581,0.756099 0.2794657,0.997709 l 0.140559,0.439289 H 13 18.022521 l 0.140559,-0.439289 c 0.07731,-0.24161 0.203067,-0.690579 0.279466,-0.997709 l 0.138907,-0.55842 h 0.994251 0.994251 l -0.02033,0.126575 c -0.042,0.261461 -0.259239,1.225713 -0.344799,1.530418 -0.04888,0.174092 -0.08507,0.320277 -0.08041,0.324855 0.0047,0.0046 0.479057,0.01286 1.054225,0.01839 l 1.045761,0.01007 0.239813,-0.402062 c 0.273057,-0.457797 0.43029,-0.760756 0.649186,-1.250859 l 0.15297,-0.342497 1.045012,-0.0078 1.045012,-0.0078 -0.06858,0.20141 c -0.332173,0.975575 -0.880059,2.076028 -1.48668,2.986061 -1.399069,2.098838 -3.426221,3.778094 -5.753021,4.765697 -1.347344,0.571876 -2.927313,0.94027 -4.273769,0.996495 -0.221134,0.0092 -0.502577,0.02115 -0.625429,0.02649 -0.122852,0.0053 -0.451601,-2.68e-4 -0.730553,-0.01244 z m 1.365816,-2.049773 c 1.154828,-0.307136 2.234303,-1.213318 3.108679,-2.609629 l 0.186499,-0.297823 -2.039677,-0.0077 c -1.121822,-0.0042 -2.95753,-0.0042 -4.079352,0 l -2.0396766,0.0077 0.1864986,0.297823 c 0.927158,1.480599 2.103157,2.424015 3.307158,2.653085 0.318308,0.06056 1.068218,0.03677 1.369871,-0.04346 z M 7.4791472,22.472372 C 7.3645238,22.297434 6.9481456,21.552477 6.8165758,21.286942 l -0.1438789,-0.290378 -0.6112627,0.0013 -0.6112624,0.0013 0.1935854,0.181252 c 0.251624,0.235593 0.6908075,0.591489 1.0260419,0.831461 0.3118082,0.223203 0.794258,0.532519 0.8313352,0.532999 0.014169,1.79e-4 0.00427,-0.03246 -0.021987,-0.07254 z M 19.020404,22.220003 c 0.511282,-0.341432 0.971227,-0.698547 1.320948,-1.025627 l 0.208476,-0.19498 -0.610538,-0.0013 -0.610539,-0.0013 -0.199389,0.394492 c -0.158472,0.313538 -0.419929,0.77695 -0.631475,1.119239 -0.0487,0.07879 0.05976,0.01849 0.522517,-0.29054 z"
     id="path359" />
  <path
     style="fill:#a0a0a0;stroke:none;stroke-width:0.0297824"
     d=""
     id="path398" />
  <path
     style="fill:#a0a0a0;stroke:none;stroke-width:0.0297824"
     d=""
     id="path437" />
  <path
     style="fill:#a0a0a0;stroke:none;stroke-width:0.0297824"
     d=""
     id="path476" />
  <path
     style="fill:#ffffff;stroke:none;stroke-width:0.0297824"
     d=""
     id="path515" />
  <path
     style="fill:#ffffff;stroke-width:0.0297824"
     d="M 2.0201382,15.10366 C 1.9026919,15.09327 1.798757,15.07688 1.7891718,15.06724 1.7017038,14.97928 0.16380298,11.243757 0.16380298,11.119263 c 0,-0.03224 0.0191634,-0.08464 0.0425853,-0.116433 0.0399513,-0.05424 0.0776939,-0.05731 0.61019737,-0.04976 0.31218665,0.0044 0.59792015,0.01985 0.63496335,0.03426 0.078313,0.03047 0.1110403,0.110006 0.6198288,1.506373 0.1909896,0.524169 0.3592472,0.948442 0.3739059,0.942827 0.014659,-0.0056 0.1881687,-0.380872 0.3855778,-0.833906 0.5238694,-1.202227 0.6451559,-1.460649 0.7281305,-1.55141 0.068434,-0.07486 0.098167,-0.083 0.367617,-0.100649 0.1612385,-0.01056 0.3930423,-0.01076 0.5151193,-4.43e-4 l 0.2219584,0.01876 0.076428,0.130414 c 0.042035,0.07173 0.2874692,0.622545 0.5454085,1.224036 0.2579391,0.601492 0.4807576,1.091581 0.4951517,1.089086 0.014394,-0.0025 0.049102,-0.0628 0.077129,-0.134021 0.028027,-0.07122 0.1663035,-0.42433 0.3072824,-0.784696 0.4406354,-1.126341 0.6069708,-1.49887 0.6797088,-1.522293 0.035592,-0.01146 0.3020316,-0.02133 0.5920879,-0.02193 0.4720731,-9.74e-4 0.5337538,0.0047 0.5882017,0.05396 0.033454,0.03028 0.060826,0.08078 0.060826,0.112231 0,0.09453 -0.7090829,1.756701 -1.387749,3.253035 C 6.4581683,14.897846 6.365499,15.0731 6.3176706,15.08828 6.2303186,15.11601 5.2714973,15.11239 5.2258258,15.08418 5.1801238,15.05593 4.9587769,14.591861 4.6081909,13.789252 4.2183725,12.896826 4.1197328,12.687304 4.0894101,12.687304 c -0.014936,0 -0.047894,0.05026 -0.073239,0.111684 -0.1995582,0.48365 -1.0552631,2.251051 -1.1038984,2.280028 -0.043797,0.02609 -0.6778548,0.04362 -0.8921343,0.02466 z"
     id="path628" />
  <path
     style="fill:#ffffff;stroke-width:0.0297824"
     d="m 10.939937,15.103542 c -0.125646,-0.01033 -0.235949,-0.02633 -0.245117,-0.03556 -0.08568,-0.08628 -1.6260915,-3.828553 -1.6260915,-3.950433 0,-0.03248 0.02841,-0.08459 0.063134,-0.115795 0.058104,-0.05222 0.1079071,-0.05609 0.6250885,-0.04868 0.309075,0.0044 0.593364,0.01999 0.631752,0.03459 0.05739,0.02182 0.110625,0.134261 0.299369,0.632268 0.126264,0.333152 0.326557,0.880473 0.445094,1.216269 0.118538,0.335796 0.228563,0.609623 0.244501,0.608504 0.01594,-0.0011 0.06742,-0.09493 0.11441,-0.208477 0.184673,-0.446245 0.616279,-1.419198 0.808004,-1.82145 0.14326,-0.30057 0.220217,-0.429581 0.264797,-0.443899 0.08439,-0.02711 0.909998,-0.02795 0.989608,-10e-4 0.04282,0.01449 0.106057,0.114327 0.196951,0.310963 0.149435,0.323281 0.649332,1.493653 0.803328,1.880772 0.0549,0.138021 0.114017,0.255677 0.131362,0.261459 0.03697,0.01232 0.0323,0.02341 0.48927,-1.161184 0.440927,-1.143013 0.495262,-1.264884 0.575718,-1.291313 0.101679,-0.0334 1.096582,-0.02069 1.187601,0.01517 0.152601,0.06012 0.13365,0.115609 -0.615013,1.800634 -0.775773,1.746044 -1.030927,2.279612 -1.100902,2.302164 -0.0898,0.02894 -1.012909,0.02614 -1.060413,-0.0032 -0.06293,-0.03889 -0.708771,-1.42299 -1.000831,-2.144872 -0.05302,-0.131042 -0.111413,-0.238259 -0.129767,-0.238259 -0.01835,0 -0.124092,0.201031 -0.234973,0.446736 -0.348309,0.771831 -0.846019,1.794676 -0.910918,1.872028 -0.0579,0.06902 -0.08543,0.07522 -0.389909,0.08782 -0.180183,0.0075 -0.430408,0.0051 -0.556054,-0.0052 z"
     id="path667" />
  <path
     style="fill:#ffffff;stroke-width:0.0297824"
     d="m 19.909507,15.110134 c -0.301608,-0.02031 -0.256011,0.04155 -0.649643,-0.881275 -0.401831,-0.942049 -1.01673,-2.432164 -1.168022,-2.830523 -0.12665,-0.333476 -0.110285,-0.41328 0.09098,-0.443666 0.162842,-0.02459 0.655072,-0.0238 0.935952,0.0015 0.195128,0.01757 0.210282,0.02431 0.264707,0.117776 0.03175,0.05452 0.242031,0.610711 0.467287,1.235967 0.225257,0.625257 0.420704,1.134759 0.434327,1.132227 0.01362,-0.0025 0.139479,-0.270573 0.279679,-0.595647 0.342183,-0.7934 0.80526,-1.794167 0.85168,-1.840586 0.04892,-0.04892 0.584924,-0.08057 0.867725,-0.05123 0.1625,0.01686 0.226026,0.03671 0.25848,0.0808 0.05354,0.07274 0.428557,0.900101 0.721709,1.592247 0.296324,0.699635 0.344484,0.804123 0.370631,0.804123 0.01226,0 0.04537,-0.07036 0.07356,-0.156357 0.08028,-0.244847 0.410168,-1.083315 0.673393,-1.711535 0.184581,-0.440525 0.254488,-0.577047 0.303502,-0.592711 0.0868,-0.02774 1.059794,-0.02761 1.143224,1.46e-4 0.126359,0.04204 0.116728,0.147861 -0.05131,0.563752 -0.39492,0.977402 -1.523827,3.500512 -1.582428,3.536729 -0.05192,0.03209 -0.681217,0.05474 -0.920027,0.03312 l -0.223368,-0.02022 -0.127249,-0.25315 c -0.06999,-0.139232 -0.3115,-0.675315 -0.536697,-1.191294 -0.238083,-0.545503 -0.425785,-0.938145 -0.448481,-0.938145 -0.02158,0 -0.128293,0.199744 -0.238669,0.446736 -0.330208,0.73892 -0.840124,1.789003 -0.908153,1.870184 -0.05979,0.07135 -0.08423,0.07691 -0.391381,0.08909 -0.180183,0.0071 -0.401317,0.008 -0.491409,0.002 z"
     id="path706" />
  <path
     style="fill:#ffffff;stroke-width:0.0297824"
     d="m 0.67010309,8.9667236 c 0,-0.1030207 0.50209111,-1.3046374 0.76143371,-1.8222813 C 2.2844724,5.4419948 3.653593,3.8200597 5.2416953,2.6307201 7.048846,1.277334 9.1502589,0.42363441 11.383396,0.13565244 c 1.820965,-0.23482887 3.829973,-0.0464415 5.569631,0.52227172 1.966265,0.64279384 3.625632,1.64491834 5.093176,3.07586914 1.214528,1.1842437 2.140715,2.5139832 2.819214,4.0475826 0.202597,0.4579264 0.481776,1.1790476 0.461354,1.1916807 -0.0065,0.004 -0.470766,3.633e-4 -1.031767,-0.00809 L 23.275003,8.9495991 23.070727,8.5142194 C 22.849534,8.0427852 22.711793,7.78357 22.42158,7.2925908 l -0.187258,-0.3168021 -0.335947,0.0064 c -0.18477,0.00352 -0.644194,0.00892 -1.020941,0.011989 -0.376747,0.00307 -0.701728,0.01621 -0.722181,0.029197 -0.02889,0.018344 -0.02041,0.086353 0.03801,0.3048132 0.133786,0.5002781 0.343106,1.3704195 0.360905,1.5002801 l 0.01733,0.1264125 -0.472462,0.019594 c -0.259854,0.010777 -0.703131,0.019639 -0.98506,0.019694 l -0.512597,8.94e-5 -0.02956,-0.1116839 c -0.01626,-0.061426 -0.04636,-0.1753436 -0.06689,-0.25315 -0.02053,-0.077806 -0.04874,-0.1414662 -0.06269,-0.1414662 -0.01395,0 -0.01706,-0.013435 -0.0069,-0.029855 0.01838,-0.02973 -0.14762,-0.6661643 -0.30681,-1.1763308 L 18.044877,7.0137359 H 12.99986 7.9548433 L 7.8402089,7.3860154 C 7.7771596,7.5907691 7.6586702,8.012934 7.5768989,8.3241597 7.4951275,8.6353854 7.4211764,8.9134781 7.4125631,8.9421437 7.3986041,8.9886003 7.351011,8.9942536 6.9745107,8.9941785 6.7421955,8.9941189 6.2993065,8.9852593 5.9903133,8.9744608 L 5.4285075,8.9548268 5.445831,8.8284388 C 5.4636302,8.6985788 5.6729528,7.8284451 5.8067921,7.327957 5.8481842,7.1731728 5.8719913,7.0369611 5.8596965,7.0252643 5.8474018,7.0135676 5.3701463,6.9994877 4.7991291,6.9939756 L 3.7609158,6.9839633 3.5822475,7.2807115 C 3.3147004,7.7250783 2.9563245,8.4227366 2.9777772,8.457448 c 0.010376,0.016789 0.00629,0.030525 -0.00908,0.030525 -0.015372,0 -0.079254,0.1139175 -0.1419617,0.2531501 l -0.1140133,0.25315 h -1.021308 c -0.6058165,0 -1.02130801,-0.011207 -1.02130801,-0.027549 z M 6.8655725,4.6534937 C 6.9671643,4.4610252 7.1492802,4.1276167 7.2702743,3.9125857 7.4837828,3.5331382 7.517209,3.4547537 7.4655125,3.4547537 c -0.094627,0 -1.2818512,0.8670494 -1.7324083,1.2652068 -0.3608591,0.318891 -0.4006305,0.2834759 0.3183479,0.2834759 H 6.6808599 Z M 17.080183,4.9782885 c 0,-0.045694 -0.547366,-0.8504832 -0.743012,-1.0924473 C 16.046615,3.5264991 15.519108,3.0130661 15.185017,2.7644267 14.822349,2.4945199 14.394643,2.2705608 13.963168,2.1246316 L 13.640321,2.0154412 13,2.0139904 12.359679,2.0125397 12.036832,2.1231809 C 10.963368,2.4910614 10.051981,3.2614352 9.2163025,4.5073085 9.0532354,4.7504174 8.9198167,4.9614999 8.9198167,4.9763806 c 0,0.016088 1.6540363,0.027056 4.0801833,0.027056 2.244101,0 4.080183,-0.011316 4.080183,-0.025148 z m 3.335625,-0.128845 C 20.187808,4.6388616 19.626792,4.1923925 19.254296,3.925086 18.963803,3.7166258 18.557245,3.4547537 18.524103,3.4547537 c -0.04002,0 0.0097,0.1048816 0.279598,0.5892232 0.16168,0.2901883 0.342776,0.6247803 0.402436,0.7435374 l 0.108472,0.2159221 0.632501,-0.00135 0.632501,-0.00135 -0.163803,-0.151289 z"
     id="path745" />
  <path
     style="fill:#ffffff;stroke-width:0.0297824"
     d="M 12.285223,25.951523 C 11.02192,25.857227 10.022404,25.663179 8.9347079,25.301048 5.4293831,24.134007 2.5829914,21.535342 1.1045345,18.152348 0.97571731,17.85759 0.73864895,17.245538 0.68636453,17.072738 l -0.0202754,-0.06701 H 1.6889603 2.7118314 l 0.085803,0.201031 c 0.1360788,0.318824 0.5313687,1.091017 0.7628861,1.490287 0.1602111,0.276298 0.2243546,0.362587 0.2617067,0.352064 0.027214,-0.0077 0.5053224,-0.02313 1.0624634,-0.03436 L 5.8976747,18.99433 5.7460414,18.379755 C 5.5701694,17.66694 5.4458135,17.074617 5.4674831,17.052948 c 0.00831,-0.0083 0.445643,-0.02443 0.9718613,-0.03583 l 0.9567609,-0.02073 0.029635,0.116354 c 0.1371108,0.538323 0.3474776,1.303529 0.4290872,1.560799 l 0.099198,0.312714 h 5.0466915 5.046691 l 0.128803,-0.416953 c 0.07084,-0.229324 0.194378,-0.669884 0.274525,-0.979023 0.08015,-0.309139 0.150966,-0.567314 0.157375,-0.573723 0.0064,-0.0064 0.447686,-0.0081 0.980615,-0.0038 l 0.968961,0.0079 -0.0854,0.416602 c -0.04697,0.229131 -0.147409,0.668776 -0.223198,0.97699 -0.07579,0.308213 -0.131897,0.566287 -0.124687,0.573498 0.0072,0.0072 0.487415,0.01653 1.067122,0.02072 l 1.054012,0.0076 0.20402,-0.342497 c 0.198832,-0.33379 0.628217,-1.170065 0.759678,-1.479559 l 0.06552,-0.154243 1.020127,-0.0096 c 0.56107,-0.0053 1.023906,-0.008 1.028524,-0.0061 0.01504,0.0061 -0.220274,0.644213 -0.350203,0.949603 -0.916387,2.153906 -2.362994,4.006277 -4.214894,5.397145 -1.861134,1.397803 -4.101801,2.281054 -6.405121,2.524842 -0.409866,0.04338 -1.7502,0.0796 -2.067961,0.05588 z m 1.518901,-2.023391 c 1.120549,-0.297169 2.234335,-1.235173 3.107701,-2.617232 0.0926,-0.14653 0.168358,-0.2772 0.168358,-0.290378 0,-0.01318 -1.836082,-0.02396 -4.080183,-0.02396 -2.244101,0 -4.0801833,0.01141 -4.0801833,0.02535 0,0.04282 0.3252785,0.536865 0.5911787,0.897901 0.3176309,0.431275 0.9928076,1.107681 1.3744566,1.376958 0.449731,0.317312 0.964302,0.55427 1.441308,0.663716 0.258447,0.0593 1.210366,0.03845 1.477364,-0.03236 z M 7.5200458,22.531137 c 0,-0.0078 -0.098186,-0.185338 -0.2181897,-0.394616 C 7.1818516,21.927242 6.993212,21.585137 6.8826569,21.376289 l -0.2010095,-0.379725 -0.630629,0.0014 -0.6306289,0.0014 0.1786941,0.164679 c 0.6222306,0.57343 1.9209622,1.497743 1.9209622,1.367158 z M 18.989444,22.25821 c 0.586479,-0.392719 0.987863,-0.704563 1.426364,-1.108173 l 0.163803,-0.150769 -0.630629,-0.0014 -0.630629,-0.0014 -0.200127,0.379725 c -0.11007,0.208848 -0.298709,0.55038 -0.419199,0.758958 -0.12049,0.208578 -0.219073,0.386156 -0.219073,0.394616 0,0.05181 0.129722,-0.01735 0.50949,-0.271653 z"
     id="path784" />
</svg>
